<svg id="Layer_1" enable-background="new 0 0 512.017 512.017" height="512" viewBox="0 0 512.017 512.017" width="512" xmlns="http://www.w3.org/2000/svg"><path d="m505.878 217.614-43.876-42.271v-123.326c0-11.045-8.954-20-20-20h-80c-11.046 0-20 8.955-20 20v7.285l-44.419-43.36c-.199-.194-.401-.384-.608-.57-22.756-20.433-57.141-20.505-79.982-.168-.187.167-.371.336-.551.51l-210.29 201.876c-12.925 12.426-4.071 34.416 13.851 34.428h30v180c0 44.112 35.888 80 80 80h72c11.046 0 20-8.954 20-20v-143h70v143c0 11.046 8.954 20 20 20h70c44.112 0 80-35.888 80-80 0-11.046-8.954-20-20-20s-20 8.954-20 20c0 22.056-17.944 40-40 40h-50v-143c0-11.046-8.954-20-20-20h-110c-11.046 0-20 8.954-20 20v143h-52c-22.056 0-40-17.944-40-40v-180h332v80c1.056 26.536 38.953 26.516 40 0v-80h30c8.157 0 15.497-4.954 18.548-12.519 3.051-7.566 1.202-16.225-4.673-21.885zm-436.162-5.597 174.11-167.144c7.526-6.496 18.66-6.479 26.166.033l78.041 76.18c5.757 5.621 14.321 7.242 21.735 4.12 7.414-3.124 12.235-10.386 12.235-18.431v-34.758h40v111.83c0 5.434 2.211 10.633 6.124 14.403l14.29 13.767z"/></svg>