<svg fill="#616169" enable-background="new 0 0 512 512" viewBox="0 0 512 512" >
  <path d="m352.167 160.083c-83.406-84.976-232.94-24.279-232.166 96.169-.031 74.949 61.048 136.028 135.999 135.998 120.441.765 181.152-148.771 96.167-232.167zm-150.306 122.021-26.376 26.376c-20.417-29.59-20.416-74.872 0-104.461l26.376 26.376c-7.747 15.461-7.747 36.249 0 51.709zm54.139 70.146c-19.247 0-37.189-5.694-52.231-15.485l26.376-26.376c15.461 7.747 36.248 7.747 51.708 0l26.376 26.376c-15.04 9.791-32.982 15.485-52.229 15.485zm-20-96c.693-26.373 39.311-26.367 40 .001-.693 26.372-39.311 26.366-40-.001zm45.854-54.139c-15.461-7.747-36.248-7.747-51.708 0l-26.376-26.376c29.59-20.417 74.872-20.416 104.461 0zm54.661 106.37-26.376-26.376c7.747-15.461 7.747-36.248 0-51.708l26.376-26.376c20.417 29.588 20.416 74.871 0 104.46zm134.576-32.481c-1.366 14.942-4.271 29.607-8.69 43.878l19.309 8.066c24 10.715 9.263 46.471-15.419 36.909.001 0-36.861-15.399-36.861-15.399-10.173-4.25-14.988-15.929-10.767-26.113 48.647-113.419-39.177-244.911-162.665-243.34-123.608-1.631-211.489 130.393-162.519 243.548 46.372 114.457 200.276 145.614 286.971 56.9 7.855-7.858 20.555-7.753 28.285.002 0 0 28.284 28.285 28.284 28.285 18.131 19.016-9.088 46.516-28.286 28.284 0 0-14.783-14.783-14.783-14.783-11.557 9.625-23.969 17.939-37.053 24.868l7.977 19.235c5.64 12.794-4.588 27.929-18.467 27.666-17.931-.03-20.401-18.771-26.459-31.579-14.202 4.38-28.913 7.295-43.948 8.666v20.907c0 11.046-8.954 20-20 20s-20-8.954-20-20v-20.908c-15.035-1.371-29.747-4.286-43.948-8.666-6.077 12.847-8.52 31.536-26.459 31.579-13.878.26-24.108-14.871-18.466-27.666 0 0 7.976-19.235 7.976-19.235-13.084-6.929-25.497-15.243-37.053-24.868l-14.783 14.784c-7.811 7.81-20.473 7.811-28.284 0-7.811-7.81-7.812-20.474-.001-28.284l14.784-14.784c-9.625-11.557-17.939-23.97-24.868-37.054-5.445 1.778-21.172 10.078-26.888 9.507-21.654-.237-27.828-29.754-7.669-38.48 0 0 19.235-7.976 19.235-7.976-4.38-14.202-7.295-28.913-8.666-43.948h-20.91c-11.046 0-20-8.954-20-20s8.954-20 20-20h20.908c1.371-15.035 4.286-29.747 8.666-43.948l-19.235-7.976c-24.103-11.136-9.578-46.138 15.322-36.949l19.235 7.976c6.929-13.084 15.243-25.497 24.868-37.054l-14.784-14.785c-7.811-7.811-7.81-20.474.001-28.284 7.81-7.81 20.473-7.81 28.284 0l14.783 14.784c11.557-9.625 23.969-17.939 37.053-24.868l-7.977-19.235c-4.231-10.203.61-21.904 10.813-26.136 10.203-4.231 21.904.61 26.136 10.813l7.977 19.235c14.202-4.38 28.913-7.295 43.948-8.666v-20.908c0-11.046 8.954-20 20-20s20 8.954 20 20v20.908c15.035 1.371 29.747 4.286 43.948 8.666l7.977-19.235c4.232-10.204 15.933-15.043 26.136-10.813 10.203 4.231 15.045 15.933 10.813 26.136l-7.977 19.235c13.084 6.929 25.497 15.243 37.053 24.868l14.783-14.784c7.811-7.811 20.474-7.811 28.284 0 7.811 7.81 7.812 20.474.001 28.284l-14.784 14.784c9.625 11.557 17.939 23.97 24.868 37.054l19.235-7.976c10.202-4.23 21.904.61 26.136 10.813s-.61 21.905-10.813 26.136l-19.235 7.976c4.38 14.201 7.295 28.913 8.666 43.948h20.911c11.046 0 20 8.954 20 20s-8.954 20-20 20z"/>
</svg>