<svg fill="#616169" viewBox="0 0 512 512">
  <path d="m499.513 463.003h-12.596v-35.463c0-4.138-3.354-7.492-7.492-7.492s-7.492 3.354-7.492 7.492v35.463h-71.166v-206.202h71.166v136.023c0 4.138 3.354 7.492 7.492 7.492s7.492-3.354 7.492-7.492v-138.52c0-6.885-5.602-12.487-12.487-12.487h-76.161c-6.885 0-12.487 5.602-12.487 12.487v208.699h-19.098v-159.75c0-6.885-5.602-12.487-12.487-12.487h-76.161c-6.885 0-12.487 5.602-12.487 12.487v159.75h-19.098v-289.52c0-6.885-5.602-12.487-12.487-12.487h-76.161c-6.885 0-12.487 5.602-12.487 12.487v64.835c0 4.138 3.354 7.492 7.492 7.492s7.492-3.354 7.492-7.492v-62.338h71.166v287.022h-71.166v-189.804c0-4.138-3.354-7.492-7.492-7.492s-7.492 3.354-7.492 7.492v189.805h-19.097v-94.501c0-6.885-5.602-12.487-12.487-12.487h-76.161c-6.885 0-12.487 5.602-12.487 12.487v94.501h-12.597c-6.885 0-12.487 5.601-12.487 12.487v23.891c0 6.885 5.602 12.487 12.487 12.487h487.026c6.885 0 12.487-5.602 12.487-12.487v-23.891c0-6.886-5.602-12.487-12.487-12.487zm-218.98-157.252h71.166v157.252h-71.166zm-240.465 65.248h71.166v92.003h-71.166zm456.947 125.885h-482.03v-18.897h17.582.01 86.151.01 34.062.01 86.151.01 34.063.01 86.151.01 34.063.01 86.151.01 17.582v18.897z"/><path d="m150.976 85.935-4.286 24.988c-1.195 6.967 1.615 13.877 7.335 18.033 3.232 2.348 7.013 3.541 10.819 3.541 2.93 0 5.875-.707 8.597-2.137l22.441-11.798 22.441 11.798c6.256 3.288 13.697 2.752 19.416-1.403s8.53-11.065 7.335-18.033l-4.286-24.988 18.155-17.697c5.062-4.934 6.85-12.177 4.665-18.9-2.184-6.724-7.887-11.532-14.883-12.548l-25.09-3.646-11.22-22.736c-3.129-6.34-9.464-10.278-16.534-10.278-7.069 0-13.404 3.938-16.532 10.278l-11.22 22.735-25.091 3.646c-6.996 1.017-12.698 5.825-14.883 12.548-2.184 6.724-.397 13.966 4.666 18.9zm-8.569-31.966c.2-.614.87-2.071 2.787-2.35l26.238-3.813c4.162-.605 7.759-3.217 9.621-6.99l11.734-23.776c.857-1.737 2.45-1.924 3.095-1.924s2.238.188 3.096 1.925l11.734 23.775c1.861 3.772 5.458 6.386 9.621 6.99l26.238 3.813c1.917.278 2.588 1.736 2.787 2.35.2.614.514 2.187-.874 3.539l-18.984 18.506c-3.013 2.936-4.387 7.165-3.676 11.311l4.482 26.132c.327 1.909-.852 2.997-1.374 3.377-.522.379-1.923 1.163-3.635.262l-23.468-12.337c-3.725-1.958-8.171-1.957-11.893 0l-23.468 12.338c-1.715.9-3.113.116-3.635-.263-.522-.38-1.7-1.468-1.373-3.377l4.482-26.132c.711-4.146-.663-8.375-3.675-11.31l-18.987-18.507c-1.387-1.352-1.072-2.925-.873-3.539z"/>
</svg>